<?xml version="1.0" standalone="no"?>
<!DOCTYPE svg PUBLIC "-//W3C//DTD SVG 20010904//EN"
 "http://www.w3.org/TR/2001/REC-SVG-20010904/DTD/svg10.dtd">
<svg version="1.0" xmlns="http://www.w3.org/2000/svg"
 width="572.000000pt" height="572.000000pt" viewBox="0 0 572.000000 572.000000"
 preserveAspectRatio="xMidYMid meet">
<metadata>
Created by potrace 1.11, written by Peter Selinger 2001-2013
</metadata>
<g transform="translate(0.000000,572.000000) scale(0.100000,-0.100000)"
fill="#000000" stroke="none">
<path d="M2599 4956 c-2 -2 -61 -7 -130 -10 -70 -4 -137 -9 -150 -11 -13 -2
-53 -6 -89 -9 -36 -4 -75 -8 -85 -10 -11 -2 -40 -7 -65 -10 -25 -3 -60 -10
-77 -15 -18 -5 -33 -8 -33 -6 0 2 -18 -2 -40 -10 -22 -8 -41 -14 -43 -13 -1 1
-26 -7 -55 -16 -57 -19 -122 -73 -123 -102 0 -11 -2 -26 -4 -34 -2 -8 -6 -31
-9 -50 -4 -19 -9 -42 -11 -50 -2 -8 -7 -31 -10 -50 -3 -19 -26 -116 -51 -215
-25 -99 -47 -187 -49 -195 -9 -40 -87 -339 -95 -365 -5 -16 -11 -41 -13 -55
-3 -14 -10 -43 -15 -65 -6 -22 -14 -56 -17 -75 -3 -19 -8 -42 -10 -50 -2 -8
-7 -31 -10 -50 -3 -19 -8 -42 -10 -50 -19 -73 -37 -270 -31 -350 21 -262 77
-442 193 -620 88 -135 313 -320 523 -433 36 -19 106 -56 155 -82 82 -43 155
-94 195 -136 18 -18 53 -79 46 -79 -10 0 27 -106 47 -135 12 -16 38 -46 58
-67 34 -33 37 -39 29 -73 -11 -49 -54 -134 -84 -166 -101 -108 -221 -165 -483
-229 -73 -18 -146 -41 -162 -51 -61 -37 -49 -105 26 -147 79 -43 286 -83 528
-100 133 -9 714 -9 840 1 446 34 631 99 593 208 -11 32 -73 62 -175 84 -37 8
-86 20 -108 26 -22 6 -52 13 -68 16 -15 3 -30 9 -33 14 -3 5 -12 9 -21 9 -9 0
-54 19 -101 41 -136 66 -236 181 -258 296 -5 29 -1 39 43 87 47 51 80 119 98
199 14 65 97 130 314 246 122 65 273 158 324 200 167 136 258 239 335 381 40
74 95 223 106 291 3 19 8 45 11 59 16 74 17 270 0 380 -22 152 -88 459 -130
605 -8 28 -17 64 -20 80 -3 17 -12 55 -20 85 -9 30 -17 62 -19 70 -2 8 -9 35
-16 60 -7 25 -13 52 -15 60 -8 39 -37 158 -45 185 -9 33 -46 219 -54 275 -7
49 -58 92 -142 121 -74 25 -72 24 -124 33 -19 4 -42 9 -50 11 -8 2 -35 7 -60
10 -25 3 -58 9 -75 11 -47 9 -73 12 -165 19 -47 4 -101 9 -120 11 -48 6 -685
16 -691 10z"/>
</g>
</svg>
